<?xml version="1.0" standalone="no"?><svg xmlns="http://www.w3.org/2000/svg" viewBox="0 0 1440 320"><path fill="#a2d9ff" fill-opacity="1" d="M0,160L17.1,181.3C34.3,203,69,245,103,250.7C137.1,256,171,224,206,186.7C240,149,274,107,309,101.3C342.9,96,377,128,411,122.7C445.7,117,480,75,514,80C548.6,85,583,139,617,176C651.4,213,686,235,720,245.3C754.3,256,789,256,823,224C857.1,192,891,128,926,122.7C960,117,994,171,1029,181.3C1062.9,192,1097,160,1131,128C1165.7,96,1200,64,1234,85.3C1268.6,107,1303,181,1337,213.3C1371.4,245,1406,235,1423,229.3L1440,224L1440,320L1422.9,320C1405.7,320,1371,320,1337,320C1302.9,320,1269,320,1234,320C1200,320,1166,320,1131,320C1097.1,320,1063,320,1029,320C994.3,320,960,320,926,320C891.4,320,857,320,823,320C788.6,320,754,320,720,320C685.7,320,651,320,617,320C582.9,320,549,320,514,320C480,320,446,320,411,320C377.1,320,343,320,309,320C274.3,320,240,320,206,320C171.4,320,137,320,103,320C68.6,320,34,320,17,320L0,320Z"></path></svg>